<svg width="100" height="100" version="1.1" viewBox="0 0 26.458 26.458" xmlns="http://www.w3.org/2000/svg">
 <g transform="translate(-26.614 -75.172)">
  <g transform="matrix(0 -1.2262 -1.2262 0 269.67 259.36)" fill="#ffffff" stroke-width=".21577" aria-label="S">
   <g>
    <circle transform="matrix(0,-1,-1,0,0,0)" cx="-187.43" cy="-139.42" r="10.788" fill="#5755d9" stroke-linecap="round" stroke-width=".21577"/>
    <g transform="matrix(0,-1,-1,0,0,0)" stroke-width=".046556" aria-label="S">
     <path d="m-187.43-133.18q-1.7314 0-2.8741-0.48479-1.1427-0.5021-1.7314-1.2985-0.58867-0.79644-0.6233-1.6968 0-0.13851 0.10388-0.2424 0.1212-0.12119 0.27702-0.12119h2.1815q0.24239 0 0.36359 0.0866 0.13851 0.0866 0.24239 0.22508 0.13851 0.25971 0.38091 0.5021 0.2597 0.2424 0.67524 0.39822 0.41553 0.13851 1.0042 0.13851 1.0042 0 1.5063-0.31165 0.51941-0.31164 0.51941-0.84837 0-0.39822-0.27702-0.64061-0.27702-0.2424-0.90032-0.43285-0.60598-0.20776-1.6275-0.41553-1.3158-0.27702-2.2508-0.70986-0.91763-0.45016-1.4024-1.16-0.48478-0.72718-0.48478-1.8006 0-1.0562 0.58867-1.8872 0.60598-0.83106 1.6794-1.2985 1.0735-0.46748 2.5451-0.46748 1.1947 0 2.095 0.31165 0.91764 0.31165 1.5409 0.83106 0.6233 0.51942 0.93495 1.1081 0.32896 0.57135 0.34627 1.1254 0 0.13851-0.10388 0.25971-0.0866 0.10388-0.25971 0.10388h-2.2854q-0.19045 0-0.32896-0.0692-0.13851-0.0693-0.24239-0.22508-0.10389-0.3809-0.55405-0.65792-0.43284-0.29434-1.1427-0.29434-0.7618 0-1.1946 0.27702-0.41553 0.25971-0.41553 0.81375 0 0.34628 0.22508 0.60598 0.24239 0.25971 0.77912 0.45016 0.55404 0.19045 1.5063 0.39822 1.5756 0.29433 2.5451 0.74449 0.96957 0.43285 1.4197 1.1427 0.46747 0.69256 0.46747 1.7487 0 1.1773-0.67523 2.0257-0.67524 0.84838-1.8526 1.3158-1.16 0.45016-2.701 0.45016z" stroke-width=".046556"/>
    </g>
   </g>
  </g>
 </g>
</svg>
