<svg width="476.25mm" height="158.75mm" version="1.1" viewBox="0 0 476.25 158.75" xmlns="http://www.w3.org/2000/svg">
 <g transform="translate(133.79 -59.104)">
  <g>
   <path d="m-133.79 59.104h476.25v158.75h-476.25z" fill="#191c20" stroke-linecap="round" stroke-width=".26458"/>
   <g transform="translate(-16.085 -2.2373)">
    <g transform="matrix(.37937 0 0 .37937 50.492 91.88)">
     <path d="m140.04 128.73a19.551 19.551 0 0 1-19.551 19.551 19.551 19.551 0 0 1-19.551-19.551 19.551 19.551 0 0 1 19.551-19.551 19.551 19.551 0 0 1 19.551 19.551z" fill="#1890ff" stroke-linecap="round" stroke-width=".69742"/>
     <path d="m120.49 140.03q-3.1378 0-5.2087-0.8786-2.071-0.90997-3.1378-2.3532-1.0669-1.4434-1.1296-3.0751 0-0.25103 0.18826-0.43931 0.21966-0.21963 0.50205-0.21963h3.9536q0.43928 0 0.65893 0.15695 0.25102 0.15695 0.43929 0.40791 0.25102 0.47068 0.69032 0.90997 0.47066 0.4393 1.2238 0.7217 0.75307 0.25103 1.82 0.25103 1.82 0 2.7298-0.5648 0.94134-0.56479 0.94134-1.5376 0-0.7217-0.50205-1.161-0.50204-0.4393-1.6317-0.78446-1.0982-0.37653-2.9495-0.75307-2.3846-0.50204-4.0791-1.2865-1.663-0.81584-2.5416-2.1023-0.87858-1.3179-0.87858-3.2633 0-1.9142 1.0669-3.4202 1.0982-1.5061 3.0436-2.3533 1.9455-0.84721 4.6125-0.84721 2.1651 0 3.7968 0.56481 1.663 0.56481 2.7927 1.5061 1.1296 0.94135 1.6944 2.0083 0.59618 1.0355 0.62756 2.0396 0 0.25102-0.18827 0.47068-0.15695 0.18827-0.47068 0.18827h-4.1419q-0.34515 0-0.59618-0.12541-0.25102-0.1256-0.43928-0.40791-0.18829-0.69031-1.0041-1.1924-0.78445-0.53343-2.071-0.53343-1.3806 0-2.165 0.50204-0.75306 0.47068-0.75306 1.4748 0 0.62757 0.40791 1.0982 0.43929 0.47068 1.412 0.81584 1.0041 0.34515 2.7298 0.7217 2.8555 0.53342 4.6125 1.3492 1.7572 0.78446 2.5729 2.071 0.8472 1.2551 0.8472 3.1693 0 2.1336-1.2237 3.6712-1.2238 1.5376-3.3576 2.3846-2.1023 0.81584-4.8951 0.81584z" fill="#fff" stroke-width=".15048"/>
    </g>
    <path d="m110.39 133.98c-0.65861 0-1.2277 0.10588-1.7074 0.31729-0.4716 0.2114-0.83742 0.5002-1.0976 0.8661-0.25207 0.36589-0.37828 0.78465-0.37828 1.2562 0 0.48786 0.10161 0.89005 0.30489 1.2072 0.21141 0.31711 0.52053 0.58131 0.92708 0.79272 0.41468 0.20327 0.92703 0.37815 1.5369 0.52451 0.52851 0.1301 0.95154 0.25632 1.2686 0.37828 0.32524 0.11383 0.56485 0.24379 0.71934 0.39015 0.15449 0.13823 0.23151 0.32541 0.23151 0.56121 0 0.33337-0.14602 0.59758-0.43873 0.79271-0.28459 0.19515-0.71992 0.29249-1.3054 0.29249-0.36589 0-0.67075-0.0487-0.91467-0.14624-0.2358-0.0976-0.42246-0.21952-0.56069-0.36587-0.13822-0.15449-0.23181-0.30905-0.2806-0.46354-0.0406-0.065-0.0893-0.11798-0.14625-0.15865-0.0488-0.0488-0.12633-0.0729-0.23203-0.0729h-1.0852c-0.0732 0-0.13414 0.0241-0.18294 0.0729s-0.0734 0.10976-0.0734 0.18294c0.0163 0.39842 0.15426 0.78081 0.41445 1.1467 0.26832 0.35777 0.65498 0.65032 1.1591 0.87798 0.51225 0.21954 1.146 0.32918 1.9022 0.32918 0.69114 0 1.2971-0.10161 1.8175-0.30489 0.52039-0.20327 0.92309-0.49155 1.2077-0.86558 0.29271-0.38215 0.43873-0.84156 0.43873-1.3782 0-0.47973-0.10162-0.87442-0.30489-1.1834-0.20328-0.31711-0.52417-0.57704-0.96325-0.78031-0.43907-0.20328-1.0044-0.38243-1.6955-0.53692-0.48786-0.1301-0.88203-0.25204-1.1829-0.36587-0.29271-0.11384-0.50823-0.2438-0.64647-0.39016-0.13009-0.15449-0.19533-0.34542-0.19533-0.57309 0-0.34151 0.13423-0.59392 0.40255-0.75654 0.26833-0.16262 0.62185-0.24392 1.0609-0.24392 0.42281 0 0.76883 0.0898 1.0372 0.26872 0.26831 0.17888 0.42662 0.39441 0.47542 0.64647 0.0406 0.0894 0.0936 0.1504 0.15865 0.18294 0.065 0.0325 0.12975 0.0486 0.19482 0.0486h1.1343c0.0813 0 0.14227-0.0246 0.18294-0.0734 0.0488-0.0569 0.0734-0.11786 0.0734-0.18293-8e-3 -0.25206-0.0851-0.50824-0.23151-0.76843-0.13823-0.26833-0.34146-0.51596-0.60978-0.74362-0.26833-0.2358-0.6058-0.42298-1.0123-0.56121-0.40656-0.14635-0.8745-0.21962-1.403-0.21962zm5.086 0c-0.0813 0-0.15029 0.0283-0.20723 0.0853-0.0569 0.0569-0.0853 0.12643-0.0853 0.20774v8.0739c0 0.0813 0.0283 0.15029 0.0853 0.20722 0.0569 0.0569 0.12592 0.0853 0.20723 0.0853h1.0123c0.0813 0 0.15029-0.0283 0.20722-0.0853 0.0569-0.0569 0.0858-0.12592 0.0858-0.20722v-8.0739c0-0.0813-0.0289-0.1508-0.0858-0.20774-0.0569-0.0569-0.12592-0.0853-0.20722-0.0853zm22.1 0c-0.0894 0-0.16218 0.0283-0.21911 0.0853-0.0488 0.0569-0.0734 0.12643-0.0734 0.20774v2.7073c-0.20327-0.2358-0.45945-0.42673-0.76843-0.57309-0.30085-0.15449-0.67093-0.23151-1.11-0.23151-0.42281 0-0.79665 0.0727-1.1219 0.2191-0.31711 0.14637-0.58559 0.35387-0.80512 0.62219-0.21141 0.26019-0.374 0.56504-0.48783 0.91467-0.1057 0.34964-0.16667 0.72775-0.18293 1.1343-8e-3 0.14635-0.0119 0.28059-0.0119 0.40256 0 0.11383 4e-3 0.2438 0.0119 0.39016 0.0163 0.42281 0.0815 0.81322 0.19533 1.171 0.11384 0.34964 0.27642 0.65449 0.48783 0.91468s0.47561 0.46342 0.79272 0.60978c0.32524 0.13823 0.69908 0.20722 1.1219 0.20722 0.4716 0 0.86201-0.0813 1.171-0.24391 0.31711-0.16262 0.57756-0.3696 0.78083-0.62167v0.45114c0 0.0813 0.0241 0.15029 0.0729 0.20722 0.0569 0.0569 0.13019 0.0853 0.21963 0.0853h0.96376c0.0813 0 0.15029-0.0283 0.20723-0.0853 0.0569-0.0569 0.0853-0.12592 0.0853-0.20722v-8.0739c0-0.0813-0.0283-0.1508-0.0853-0.20774-0.0569-0.0569-0.12591-0.0853-0.20723-0.0853zm-8.5127 2.1952c-0.48786 0-0.89859 0.0898-1.232 0.26872-0.32524 0.17075-0.59371 0.38628-0.80512 0.64647v-0.50023c0-0.0813-0.0283-0.15029-0.0853-0.20722-0.0569-0.0569-0.12592-0.0858-0.20722-0.0858h-1.0005c-0.0813 0-0.15029 0.0288-0.20722 0.0858-0.0569 0.0569-0.0853 0.12591-0.0853 0.20722v5.7568c0 0.0813 0.0283 0.15029 0.0853 0.20722 0.0569 0.0569 0.12591 0.0853 0.20722 0.0853h1.0733c0.0813 0 0.15029-0.0283 0.20722-0.0853 0.0569-0.0569 0.0858-0.12592 0.0858-0.20722v-3.3543c0-0.4716 0.12569-0.84117 0.37775-1.1095 0.25207-0.26833 0.58953-0.40256 1.0123-0.40256 0.43907 0 0.77278 0.13423 1.0005 0.40256 0.2358 0.26832 0.35346 0.63789 0.35346 1.1095v3.3543c0 0.0813 0.0283 0.15029 0.0853 0.20722 0.0569 0.0569 0.12592 0.0853 0.20722 0.0853h1.0733c0.0813 0 0.15081-0.0283 0.20774-0.0853 0.0569-0.0569 0.0853-0.12592 0.0853-0.20722v-3.4272c0-0.56917-0.10162-1.0569-0.30489-1.4635-0.19515-0.40656-0.47592-0.71995-0.84181-0.93948-0.3659-0.22766-0.79644-0.34158-1.2924-0.34158zm-7.9282 5.2e-4c-0.59356 0-1.1097 0.12194-1.5487 0.36587-0.43907 0.2358-0.78457 0.57702-1.0366 1.0242-0.24392 0.43908-0.38243 0.96748-0.41496 1.5854-8e-3 0.0732-0.0119 0.17479-0.0119 0.30489 0 0.12196 4e-3 0.22357 0.0119 0.30489 0.0406 0.95945 0.3257 1.6996 0.85421 2.22 0.52852 0.52038 1.2436 0.78031 2.1461 0.78031 0.45533 0 0.85805-0.0567 1.2077-0.17053 0.35777-0.12197 0.65458-0.27225 0.89038-0.45113 0.2358-0.17889 0.41444-0.3618 0.53641-0.54881 0.13009-0.18701 0.1996-0.34585 0.20773-0.47594 8e-3 -0.0732-0.0164-0.13413-0.0734-0.18293-0.0488-0.0488-0.11403-0.0729-0.19534-0.0729h-1.0485c-0.0894 0-0.15894 0.0118-0.20774 0.0362-0.0406 0.0163-0.0973 0.0735-0.17053 0.17104-0.0406 0.0569-0.10965 0.13019-0.20722 0.21963-0.0976 0.0894-0.22378 0.17073-0.37827 0.24391-0.15449 0.0651-0.34543 0.0977-0.57309 0.0977-0.27646 0-0.51658-0.0733-0.71986-0.21962-0.19514-0.14636-0.34543-0.33781-0.45113-0.57361-0.0976-0.24394-0.15052-0.50814-0.15865-0.79272v-0.0977h4.0494c0.0894 0 0.16269-0.0283 0.21962-0.0853 0.0569-0.0569 0.0853-0.12592 0.0853-0.20723v-0.25631c0-0.63421-0.11392-1.191-0.34158-1.6707-0.22767-0.48786-0.56514-0.86598-1.0123-1.1343-0.44721-0.27645-1.0002-0.41444-1.6588-0.41444zm22.125 0c-0.59357 0-1.1102 0.12194-1.5493 0.36587-0.43907 0.2358-0.78457 0.57702-1.0366 1.0242-0.24392 0.43908-0.38191 0.96748-0.41444 1.5854-8e-3 0.0732-0.0124 0.17479-0.0124 0.30489 0 0.12196 4e-3 0.22357 0.0124 0.30489 0.0406 0.95945 0.32518 1.6996 0.85369 2.22 0.52852 0.52038 1.2441 0.78031 2.1466 0.78031 0.45533 0 0.85753-0.0567 1.2072-0.17053 0.35777-0.12197 0.65459-0.27225 0.89039-0.45113 0.2358-0.17889 0.41495-0.3618 0.53691-0.54881 0.1301-0.18701 0.19909-0.34585 0.20723-0.47594 8e-3 -0.0732-0.0164-0.13413-0.0734-0.18293-0.0488-0.0488-0.11352-0.0729-0.19482-0.0729h-1.049c-0.0894 0-0.15842 0.0118-0.20722 0.0362-0.0406 0.0163-0.0979 0.0735-0.17105 0.17104-0.0406 0.0569-0.10965 0.13019-0.20722 0.21963-0.0976 0.0894-0.22378 0.17073-0.37827 0.24391-0.15449 0.0651-0.34543 0.0977-0.57309 0.0977-0.27646 0-0.51607-0.0733-0.71934-0.21962-0.19515-0.14636-0.34595-0.33781-0.45165-0.57361-0.0976-0.24394-0.15-0.50814-0.15813-0.79272v-0.0977h4.0488c0.0894 0 0.16269-0.0283 0.21962-0.0853 0.0569-0.0569 0.0853-0.12592 0.0853-0.20723v-0.25631c0-0.63421-0.1134-1.191-0.34107-1.6707-0.22766-0.48786-0.56513-0.86598-1.0123-1.1343-0.4472-0.27645-1.0002-0.41444-1.6588-0.41444zm4.5982 0.12144c-0.0813 0-0.15079 0.0288-0.20773 0.0858-0.0569 0.0569-0.0853 0.12967-0.0853 0.21911v5.7449c0 0.0813 0.0283 0.15029 0.0853 0.20722 0.0569 0.0569 0.12642 0.0853 0.20773 0.0853h1.0609c0.0894 0 0.16269-0.0283 0.21963-0.0853 0.0569-0.0569 0.0853-0.12592 0.0853-0.20722v-3.3538c0-0.39029 0.10588-0.69139 0.31729-0.90279 0.21952-0.21954 0.52437-0.32918 0.91466-0.32918h0.95136c0.0894 0 0.15844-0.0289 0.20722-0.0858 0.0569-0.0569 0.0853-0.12592 0.0853-0.20723v-0.87798c0-0.0813-0.0283-0.15029-0.0853-0.20722-0.0488-0.0569-0.11776-0.0858-0.20722-0.0858h-0.50022c-0.39028 0-0.73578 0.0695-1.0366 0.20774-0.2927 0.13822-0.53284 0.33718-0.71985 0.59738v-0.50023c0-0.0894-0.0321-0.16218-0.0971-0.21911-0.0569-0.0569-0.12642-0.0858-0.20773-0.0858zm-26.723 0.98805c0.28459 0 0.52898 0.069 0.73226 0.20722 0.20327 0.1301 0.35731 0.31727 0.46302 0.56121 0.1057 0.2358 0.15864 0.5123 0.15864 0.82941v0.0367h-2.6954v-0.0367c0-0.31711 0.0487-0.59361 0.14625-0.82941 0.1057-0.24394 0.26026-0.43111 0.46353-0.56121 0.20328-0.13822 0.44715-0.20722 0.73174-0.20722zm22.125 0c0.28458 0 0.52846 0.069 0.73174 0.20722 0.20327 0.1301 0.35783 0.31727 0.46354 0.56121 0.1057 0.2358 0.15864 0.5123 0.15864 0.82941v0.0367h-2.6954v-0.0367c0-0.31711 0.0487-0.59361 0.14624-0.82941 0.1057-0.24394 0.26026-0.43111 0.46354-0.56121 0.20327-0.13822 0.44715-0.20722 0.73174-0.20722zm-7.4032 0.19534c0.32525 0 0.58944 0.0733 0.79272 0.21962 0.20327 0.14636 0.35784 0.33303 0.46354 0.56069 0.1057 0.21953 0.1624 0.45163 0.17053 0.69556 8e-3 0.14637 0.0124 0.30468 0.0124 0.47543 0 0.16262-4e-3 0.31718-0.0124 0.46354-8e-3 0.25206-0.0611 0.5002-0.15865 0.74414-0.0976 0.23579-0.24786 0.431-0.45113 0.58549s-0.4755 0.23151-0.81701 0.23151c-0.3415 0-0.61424-0.0733-0.81752-0.21962-0.19514-0.15449-0.3374-0.35346-0.42684-0.59738-0.0894-0.24394-0.14238-0.51241-0.15865-0.80512-8e-3 -0.24394-8e-3 -0.48781 0-0.73174 0.0163-0.29272 0.0692-0.56119 0.15865-0.80512 0.0894-0.24393 0.2317-0.43914 0.42684-0.58549 0.20328-0.1545 0.47602-0.23151 0.81752-0.23151zm2.975 7.29c-0.19388 0-0.36444 0.0371-0.51108 0.11162-0.14416 0.0746-0.25698 0.18903-0.339 0.34313-0.082 0.15162-0.12689 0.34298-0.13436 0.57413-3e-3 0.11185-4e-3 0.21623-4e-3 0.31316 0 0.0969 1e-3 0.20131 4e-3 0.31316 7e-3 0.23364 0.0496 0.42777 0.12661 0.58187 0.0771 0.15162 0.18811 0.26444 0.33228 0.339 0.14416 0.0721 0.31925 0.10852 0.52555 0.10852s0.38138-0.0364 0.52555-0.10852c0.14416-0.0746 0.2547-0.18738 0.33176-0.339 0.0798-0.1541 0.12246-0.34823 0.12712-0.58187 5e-3 -0.11185 7e-3 -0.21622 7e-3 -0.31316 0-0.0969-2e-3 -0.20131-7e-3 -0.31316-5e-3 -0.23115-0.0499-0.42251-0.13436-0.57413-0.082-0.1541-0.19648-0.26856-0.34313-0.34313-0.14416-0.0746-0.31307-0.11162-0.50694-0.11162zm-32.123 0.0372c-0.0249 0-0.045 7e-3 -0.0599 0.0222-0.0149 0.0149-0.0222 0.0362-0.0222 0.0636v2.4422c0 0.0249 7e-3 0.0445 0.0222 0.0594 0.0149 0.0149 0.0351 0.0222 0.0599 0.0222l0.0667 5.1e-4c0.0273 0 0.0486-8e-3 0.0636-0.0227 0.0149-0.0149 0.0222-0.0346 0.0222-0.0594v-1.0216h0.76843l0.59273 1.003c0.0149 0.0248 0.0323 0.0484 0.0522 0.0708 0.0199 0.0199 0.0496 0.0295 0.0894 0.0295h0.045c0.0199 0 0.0373-7e-3 0.0522-0.0222 0.0149-0.0149 0.0222-0.0323 0.0222-0.0522 0-0.0124-4e-3 -0.0259-0.0114-0.0408l-0.59996-1.0216c0.17647-0.0423 0.31399-0.12306 0.41341-0.24237 0.0994-0.1193 0.14934-0.27864 0.14934-0.47749 0-0.25352-0.078-0.44209-0.2346-0.56637-0.15411-0.12427-0.36173-0.18655-0.62271-0.18655zm3.1011 0c-0.0298 0-0.0534 6e-3 -0.0708 0.0186-0.0149 0.0124-0.0273 0.0309-0.0372 0.0558l-0.94309 2.42c-5e-3 0.0149-7e-3 0.0284-7e-3 0.0408 0 0.0199 8e-3 0.0373 0.0227 0.0522 0.0149 0.0149 0.0323 0.0222 0.0522 0.0222h0.0734c0.0249 0 0.0434-6e-3 0.0558-0.0186 0.0147-0.0149 0.0237-0.0273 0.0264-0.0372l0.23099-0.59635h1.3198l0.23099 0.59635c5e-3 0.01 0.014 0.0223 0.0264 0.0372 0.0124 0.0124 0.0309 0.0186 0.0558 0.0186h0.0744c0.0199 0 0.0373-7e-3 0.0522-0.0222 0.0149-0.0149 0.0227-0.0323 0.0227-0.0522 0-0.0124-3e-3 -0.0259-7e-3 -0.0408l-0.9431-2.42c-0.01-0.0249-0.0239-0.0434-0.0413-0.0558-0.0149-0.0124-0.0369-0.0186-0.0667-0.0186zm1.7084 0c-0.0248 0-0.045 7e-3 -0.06 0.0222-0.0149 0.0149-0.0222 0.0362-0.0222 0.0636v2.4422c0 0.0249 7e-3 0.0445 0.0222 0.0594 0.0149 0.0149 0.0351 0.0222 0.06 0.0222h0.0667c0.0273 0 0.0486-7e-3 0.0636-0.0222 0.0149-0.0149 0.0222-0.0351 0.0222-0.06v-0.98392h0.75345c0.17399 0 0.32437-0.0286 0.45113-0.0858 0.12925-0.0597 0.22857-0.14663 0.29817-0.26096 0.0721-0.11434 0.10801-0.25628 0.10801-0.4253s-0.0359-0.31045-0.10801-0.42478c-0.0696-0.11437-0.16892-0.20022-0.29817-0.25735-0.12676-0.0597-0.27714-0.0894-0.45113-0.0894zm2.3415 0c-0.0248 0-0.045 7e-3 -0.06 0.0222-0.0149 0.0149-0.0222 0.0351-0.0222 0.0599v2.4458c0 0.0249 7e-3 0.0445 0.0222 0.0594 0.0149 0.0149 0.0351 0.0222 0.06 0.0222h0.0708c0.0249 0 0.0445-7e-3 0.0594-0.0222 0.0149-0.0149 0.0222-0.0346 0.0222-0.0594v-2.4458c0-0.0249-7e-3 -0.045-0.0222-0.0599-0.0149-0.0149-0.0346-0.0222-0.0594-0.0222zm0.93534 0c-0.0249 0-0.0445 7e-3 -0.0594 0.0222-0.0149 0.0149-0.0222 0.0362-0.0222 0.0636v2.4422c0 0.0249 7e-3 0.0445 0.0222 0.0594 0.0149 0.0149 0.0346 0.0222 0.0594 0.0222h0.81287c0.25601 0 0.45745-0.0359 0.6041-0.108 0.14665-0.0746 0.25102-0.18625 0.31316-0.33539 0.0624-0.14913 0.0961-0.33821 0.10077-0.56689 3e-3 -0.11185 4e-3 -0.21004 4e-3 -0.29455 0-0.087-1e-3 -0.18633-4e-3 -0.29817-3e-3 -0.21625-0.0362-0.39916-0.10077-0.54829-0.0621-0.15162-0.16764-0.26556-0.31678-0.34262-0.14913-0.077-0.35562-0.11575-0.61908-0.11575zm3.2334 0c-0.0199 0-0.0373 8e-3 -0.0522 0.0227-0.0149 0.0149-0.0227 0.0323-0.0227 0.0522v0.0186c2e-3 7e-3 5e-3 0.0159 7e-3 0.0258l0.51056 2.4009c7e-3 0.0323 0.0187 0.0559 0.0336 0.0708 0.0174 0.0124 0.041 0.0186 0.0708 0.0186h0.0558c0.0298 0 0.0534-7e-3 0.0708-0.0222 0.0199-0.0149 0.035-0.0374 0.045-0.0672l0.49609-1.573 0.49557 1.573c0.01 0.0298 0.0234 0.0523 0.0408 0.0672 0.0199 0.0149 0.0451 0.0222 0.0749 0.0222h0.0558c0.0298 0 0.0523-6e-3 0.0672-0.0186 0.0174-0.0149 0.0297-0.0385 0.0372-0.0708l0.51056-2.4009c3e-3 -0.01 4e-3 -0.0184 4e-3 -0.0258 3e-3 -0.01 4e-3 -0.0159 4e-3 -0.0186 0-0.0199-7e-3 -0.0373-0.0222-0.0522-0.0149-0.0149-0.0323-0.0227-0.0522-0.0227h-0.0785c-0.0472 0-0.0747 0.0185-0.0822 0.0558l-0.43615 2.1254-0.46198-1.5177c-7e-3 -0.0223-0.0203-0.042-0.0377-0.0594s-0.0432-0.0258-0.078-0.0258h-0.0822c-0.0323 0-0.0582 8e-3 -0.078 0.0258-0.0174 0.0173-0.0297 0.037-0.0372 0.0594l-0.4625 1.5177-0.43615-2.1254c-7e-3 -0.0373-0.035-0.0558-0.0822-0.0558zm3.1161 0c-0.0248 0-0.0445 7e-3 -0.0594 0.0222-0.0149 0.0149-0.0227 0.0362-0.0227 0.0636v2.4422c0 0.0249 8e-3 0.0445 0.0227 0.0594 0.0149 0.0149 0.0346 0.0222 0.0594 0.0222l1.4842 5.1e-4c0.0273 0 0.0481-8e-3 0.0631-0.0227 0.0149-0.0149 0.0227-0.0346 0.0227-0.0594v-0.0558c0-0.0273-8e-3 -0.0486-0.0227-0.0636-0.0149-0.0149-0.0357-0.0222-0.0631-0.0222h-1.3312v-0.98806h1.219c0.0273 0 0.0486-8e-3 0.0636-0.0227 0.0149-0.0149 0.0222-0.0346 0.0222-0.0594v-0.0558c0-0.0273-7e-3 -0.0486-0.0222-0.0636-0.0149-0.0149-0.0362-0.0222-0.0636-0.0222h-1.219v-0.95084h1.3012c0.0273 0 0.0486-7e-3 0.0636-0.0222 0.0149-0.0149 0.0222-0.0351 0.0222-0.06v-0.0558c0-0.0273-7e-3 -0.0486-0.0222-0.0636-0.0149-0.0149-0.0362-0.0222-0.0636-0.0222zm2.2071 0c-0.0249 0-0.0445 7e-3 -0.0594 0.0222-0.0149 0.0149-0.0227 0.0362-0.0227 0.0636v2.4422c0 0.0249 8e-3 0.0445 0.0227 0.0594 0.0149 0.0149 0.0346 0.0222 0.0594 0.0222h0.99943c0.16902 0 0.31044-0.0348 0.42478-0.10439 0.11685-0.0721 0.20383-0.1641 0.26096-0.27595 0.0597-0.11434 0.0894-0.23333 0.0894-0.3576 0-0.15659-0.0382-0.28958-0.11524-0.39894-0.077-0.10935-0.16515-0.18902-0.26458-0.23875 0.0497-0.0249 0.0991-0.0608 0.14883-0.108 0.0522-0.0472 0.0943-0.10837 0.12661-0.18294 0.0348-0.077 0.0522-0.16907 0.0522-0.27595 0-0.11931-0.0258-0.22872-0.078-0.32814-0.0522-0.10192-0.13413-0.18385-0.24598-0.24598-0.10936-0.0621-0.2513-0.093-0.4253-0.093zm3.3967 0c-0.0249 0-0.045 7e-3 -0.06 0.0222-0.0149 0.0149-0.0222 0.0362-0.0222 0.0636v2.4422c0 0.0249 7e-3 0.0445 0.0222 0.0594 0.0149 0.0149 0.0351 0.0222 0.06 0.0222h0.81287c0.25601 0 0.45745-0.0359 0.60409-0.108 0.14666-0.0746 0.25103-0.18625 0.31316-0.33539 0.0624-0.14913 0.0956-0.33821 0.10026-0.56689 3e-3 -0.11185 4e-3 -0.21004 4e-3 -0.29455 0-0.087-1e-3 -0.18633-4e-3 -0.29817-3e-3 -0.21625-0.0357-0.39916-0.10026-0.54829-0.0621-0.15162-0.16816-0.26556-0.31729-0.34262-0.14913-0.077-0.3551-0.11575-0.61857-0.11575zm2.5239 0c-0.0249 0-0.0445 7e-3 -0.0594 0.0222-0.0149 0.0149-0.0227 0.0362-0.0227 0.0636v2.4422c0 0.0249 8e-3 0.0445 0.0227 0.0594 0.0149 0.0149 0.0346 0.0222 0.0594 0.0222l1.4842 5.1e-4c0.0273 0 0.0481-8e-3 0.0631-0.0227 0.0149-0.0149 0.0227-0.0346 0.0227-0.0594v-0.0558c0-0.0273-8e-3 -0.0486-0.0227-0.0636-0.0149-0.0149-0.0357-0.0222-0.0631-0.0222h-1.3312v-0.98806h1.219c0.0273 0 0.0486-8e-3 0.0636-0.0227 0.0149-0.0149 0.0222-0.0346 0.0222-0.0594v-0.0558c0-0.0273-7e-3 -0.0486-0.0222-0.0636-0.0149-0.0149-0.0362-0.0222-0.0636-0.0222h-1.219v-0.95084h1.3012c0.0273 0 0.0486-7e-3 0.0636-0.0222 0.0149-0.0149 0.0222-0.0351 0.0222-0.06v-0.0558c0-0.0273-7e-3 -0.0486-0.0222-0.0636-0.0149-0.0149-0.0362-0.0222-0.0636-0.0222zm1.9503 0c-0.0199 0-0.0373 7e-3 -0.0522 0.0222-0.0149 0.0149-0.0222 0.0323-0.0222 0.0522 0 0.0124 3e-3 0.0264 7e-3 0.0413l0.86455 2.4045c0.0125 0.0298 0.0287 0.0523 0.0486 0.0672s0.0462 0.0222 0.0785 0.0222h0.10542c0.0348 0 0.0618-7e-3 0.0816-0.0222 0.0199-0.0149 0.035-0.0374 0.045-0.0672l0.86506-2.4045c5e-3 -0.0149 7e-3 -0.0289 7e-3 -0.0413 0-0.0199-7e-3 -0.0373-0.0222-0.0522-0.0149-0.0149-0.0323-0.0222-0.0522-0.0222h-0.0786c-0.0248 0-0.0433 7e-3 -0.0558 0.0222-0.0127 0.0124-0.0212 0.0237-0.0258 0.0336l-0.81649 2.282-0.81648-2.282c-2e-3 -0.01-0.0114-0.0212-0.0264-0.0336-0.0124-0.0149-0.0309-0.0222-0.0558-0.0222zm2.5983 0c-0.0249 0-0.0445 7e-3 -0.0594 0.0222-0.0149 0.0149-0.0227 0.0362-0.0227 0.0636v2.4422c0 0.0249 8e-3 0.0445 0.0227 0.0594 0.0149 0.0149 0.0346 0.0222 0.0594 0.0222l1.4842 5.1e-4c0.0273 0 0.0481-8e-3 0.0631-0.0227 0.0149-0.0149 0.0227-0.0346 0.0227-0.0594v-0.0558c0-0.0273-8e-3 -0.0486-0.0227-0.0636-0.0149-0.0149-0.0357-0.0222-0.0631-0.0222h-1.3312v-0.98806h1.219c0.0273 0 0.0486-8e-3 0.0636-0.0227 0.0149-0.0149 0.0222-0.0346 0.0222-0.0594v-0.0558c0-0.0273-7e-3 -0.0486-0.0222-0.0636-0.0149-0.0149-0.0362-0.0222-0.0636-0.0222h-1.219v-0.95084h1.3012c0.0273 0 0.0486-7e-3 0.0636-0.0222 0.0149-0.0149 0.0222-0.0351 0.0222-0.06v-0.0558c0-0.0273-7e-3 -0.0486-0.0222-0.0636-0.0149-0.0149-0.0362-0.0222-0.0636-0.0222zm2.2071 0c-0.0249 0-0.0445 7e-3 -0.0594 0.0222-0.0149 0.0149-0.0222 0.0351-0.0222 0.0599v2.4458c0 0.0249 7e-3 0.0445 0.0222 0.0594 0.0149 0.0149 0.0346 0.0222 0.0594 0.0222l1.4392 5.1e-4c0.0273 0 0.0486-8e-3 0.0636-0.0227 0.0149-0.0149 0.0222-0.0346 0.0222-0.0594v-0.0563c0-0.0273-7e-3 -0.0481-0.0222-0.063-0.0149-0.0149-0.0362-0.0227-0.0636-0.0227h-1.2862v-2.3037c0-0.0249-7e-3 -0.045-0.0222-0.0599-0.0149-0.0149-0.0351-0.0222-0.0599-0.0222zm4.4705 0c-0.0248 0-0.0445 7e-3 -0.0594 0.0222-0.0149 0.0149-0.0227 0.0362-0.0227 0.0636v2.4422c0 0.0249 8e-3 0.0445 0.0227 0.0594 0.0149 0.0149 0.0346 0.0222 0.0594 0.0222h0.0672c0.0273 0 0.0481-7e-3 0.0631-0.0222 0.0149-0.0149 0.0227-0.0351 0.0227-0.06v-0.98392h0.75293c0.17399 0 0.32437-0.0286 0.45113-0.0858 0.12926-0.0597 0.22858-0.14663 0.29818-0.26096 0.0721-0.11434 0.108-0.25628 0.108-0.4253s-0.0359-0.31045-0.108-0.42478c-0.0696-0.11437-0.16892-0.20022-0.29818-0.25735-0.12676-0.0597-0.27714-0.0894-0.45113-0.0894zm2.3451 0c-0.0249 0-0.0462 7e-3 -0.0636 0.0222-0.0149 0.0149-0.0222 0.0362-0.0222 0.0636v2.4422c0 0.0249 7e-3 0.0445 0.0222 0.0594 0.0174 0.0149 0.0387 0.0222 0.0636 0.0222h0.0672c0.0249 0 0.0445-7e-3 0.0594-0.0222 0.0149-0.0149 0.0227-0.0346 0.0227-0.0594v-2.0211l0.7121 1.402c0.0124 0.0248 0.0271 0.0433 0.0445 0.0558 0.0174 0.0124 0.041 0.0186 0.0708 0.0186h0.0822c0.0298 0 0.0534-6e-3 0.0708-0.0186 0.0199-0.0124 0.035-0.0309 0.045-0.0558l0.7121-1.402v2.0211c0 0.0249 7e-3 0.0445 0.0222 0.0594 0.0149 0.0149 0.0346 0.0222 0.0594 0.0222h0.0672c0.0273 0 0.0486-7e-3 0.0636-0.0222 0.0149-0.0149 0.0222-0.0346 0.0222-0.0594v-2.4422c0-0.0273-7e-3 -0.0486-0.0222-0.0636-0.0149-0.0149-0.0362-0.0222-0.0636-0.0222h-0.0894c-0.0249 0-0.0434 6e-3 -0.0558 0.0186-0.0103 0.0124-0.0175 0.0225-0.0222 0.03l-0.85008 1.648-0.84646-1.648c-3e-3 -7e-3 -0.0103-0.0176-0.0227-0.03s-0.031-0.0186-0.0558-0.0186zm2.9042 0c-0.0249 0-0.0445 7e-3 -0.0594 0.0222-0.0149 0.0149-0.0227 0.0362-0.0227 0.0636v2.4422c0 0.0249 8e-3 0.0445 0.0227 0.0594 0.0149 0.0149 0.0346 0.0222 0.0594 0.0222l1.4842 5.1e-4c0.0273 0 0.0481-8e-3 0.063-0.0227 0.0149-0.0149 0.0228-0.0346 0.0228-0.0594v-0.0558c0-0.0273-8e-3 -0.0486-0.0228-0.0636-0.0149-0.0149-0.0357-0.0222-0.063-0.0222h-1.3312v-0.98806h1.219c0.0273 0 0.0486-8e-3 0.0636-0.0227 0.0149-0.0149 0.0222-0.0346 0.0222-0.0594v-0.0558c0-0.0273-7e-3 -0.0486-0.0222-0.0636-0.0149-0.0149-0.0362-0.0222-0.0636-0.0222h-1.219v-0.95084h1.3012c0.0273 0 0.0486-7e-3 0.0636-0.0222 0.015-0.0149 0.0222-0.0351 0.0222-0.06v-0.0558c0-0.0273-7e-3 -0.0486-0.0222-0.0636-0.0149-0.0149-0.0362-0.0222-0.0636-0.0222zm2.2071 0c-0.0249 0-0.0445 7e-3 -0.0594 0.0222-0.0149 0.0149-0.0222 0.0362-0.0222 0.0636v2.4422c0 0.0249 7e-3 0.0445 0.0222 0.0594 0.0149 0.0149 0.0346 0.0222 0.0594 0.0222h0.0672c0.0273 0 0.0486-7e-3 0.0636-0.0222 0.0149-0.0149 0.0222-0.0346 0.0222-0.0594v-2.0583l1.372 2.0955c5e-3 5e-3 0.0128 0.0134 0.0227 0.0258 0.0124 0.0124 0.0309 0.0186 0.0558 0.0186h0.0822c0.0249 0 0.0445-7e-3 0.0594-0.0222 0.0149-0.0174 0.0222-0.0387 0.0222-0.0636v-2.4381c0-0.0273-7e-3 -0.0486-0.0222-0.0636-0.0149-0.0149-0.0362-0.0222-0.0636-0.0222h-0.0666c-0.0249 0-0.045 7e-3 -0.06 0.0222-0.0149 0.0149-0.0222 0.0362-0.0222 0.0636v2.0619l-1.3762-2.1032c-3e-3 -5e-3 -0.01-0.0134-0.0222-0.0258-0.0124-0.0124-0.0309-0.0186-0.0558-0.0186zm2.3006 0c-0.0249 0-0.045 7e-3 -0.0599 0.0222-0.0149 0.0149-0.0222 0.0362-0.0222 0.0636v0.0558c0 0.0249 7e-3 0.045 0.0222 0.06 0.0149 0.0149 0.0351 0.0222 0.0599 0.0222h0.73795v2.3042c0 0.0249 8e-3 0.0445 0.0227 0.0594 0.0149 0.0149 0.0345 0.0222 0.0594 0.0222h0.0672c0.0273 0 0.0481-7e-3 0.0631-0.0222 0.0149-0.0149 0.0227-0.0346 0.0227-0.0594v-2.3042h0.73432c0.0273 0 0.0486-7e-3 0.0636-0.0222 0.0149-0.0149 0.0222-0.0351 0.0222-0.06v-0.0558c0-0.0273-7e-3 -0.0486-0.0222-0.0636-0.0149-0.0149-0.0362-0.0222-0.0636-0.0222zm-11.424 0.18655c0.14168 0 0.26736 0.0286 0.37672 0.0858 0.11187 0.0547 0.19998 0.14279 0.26458 0.26459 0.0674 0.12178 0.10334 0.27948 0.108 0.47335 5e-3 0.11186 7e-3 0.21005 7e-3 0.29456 0 0.0845-3e-3 0.1827-7e-3 0.29455-0.01 0.29081-0.0846 0.5012-0.22375 0.63046-0.13671 0.12924-0.3118 0.19378-0.52555 0.19378-0.21128 0-0.38637-0.0645-0.52555-0.19378-0.1392-0.12926-0.21383-0.33965-0.22376-0.63046-3e-3 -0.11185-4e-3 -0.21004-4e-3 -0.29455 0-0.0845 1e-3 -0.1827 4e-3 -0.29456 7e-3 -0.19387 0.0434-0.35157 0.108-0.47335 0.0671-0.12182 0.15522-0.20992 0.26458-0.26459 0.11185-0.0572 0.23753-0.0858 0.37673-0.0858zm-31.971 0.0372h0.69763c0.21624 0 0.3762 0.0449 0.48059 0.13436 0.10688 0.087 0.16072 0.21885 0.16072 0.39532s-0.0538 0.30895-0.16072 0.39843c-0.10439 0.087-0.26435 0.13074-0.48059 0.13074h-0.69763zm4.8095 0h0.73484c0.21625 0 0.37672 0.0471 0.48111 0.14159 0.10687 0.0944 0.1602 0.23022 0.1602 0.40669 0 0.17648-0.0533 0.31173-0.1602 0.40618-0.10439 0.0944-0.26486 0.14159-0.48111 0.14159h-0.73484zm3.2773 0h0.6227c0.29827 0 0.50815 0.0657 0.62994 0.1974 0.1221 0.12925 0.1855 0.33069 0.19017 0.6041 3e-3 0.0746 4e-3 0.13912 4e-3 0.19379v0.16794c0 0.0547-1e-3 0.11922-4e-3 0.19379-2e-3 0.19387-0.0294 0.35043-0.0816 0.46974-0.0497 0.11683-0.13329 0.20268-0.25011 0.25735-0.11434 0.0522-0.2709 0.0786-0.46974 0.0786h-0.64131zm8.5566 0h0.77204c0.18393 0 0.32309 0.0371 0.41755 0.11162 0.0969 0.0746 0.14521 0.18563 0.14521 0.33228 0 0.14664-0.0483 0.26059-0.14521 0.34261-0.0945 0.082-0.23362 0.12299-0.41755 0.12299h-0.77204zm3.3967 0h0.6227c0.29827 0 0.50814 0.0657 0.62993 0.1974 0.1221 0.12925 0.18551 0.33069 0.19017 0.6041 3e-3 0.0746 4e-3 0.13912 4e-3 0.19379v0.16794c0 0.0547-1e-3 0.11922-4e-3 0.19379-2e-3 0.19387-0.03 0.35043-0.0822 0.46974-0.0497 0.11683-0.13278 0.20268-0.2496 0.25735-0.11433 0.0522-0.27089 0.0786-0.46974 0.0786h-0.6413zm13.75 0h0.73433c0.21624 0 0.37671 0.0471 0.4811 0.14159 0.10688 0.0944 0.1602 0.23022 0.1602 0.40669 0 0.17648-0.0533 0.31173-0.1602 0.40618-0.10439 0.0944-0.26486 0.14159-0.4811 0.14159h-0.73433zm-30.777 0.0408 0.57051 1.4692h-1.141zm13.631 1.0924h0.80925c0.18393 0 0.32536 0.0488 0.42478 0.14573 0.10191 0.0944 0.15296 0.21735 0.15296 0.36897 0 0.14913-0.0511 0.27204-0.15296 0.36897-0.0994 0.0969-0.24085 0.14573-0.42478 0.14573h-0.80925z" fill="#fff" stroke-width=".26458"/>
   </g>
  </g>
 </g>
</svg>
