<svg width="100" height="100" viewBox="0 0 26.458 26.458" xmlns="http://www.w3.org/2000/svg"><path d="M3.717 0h19.025a3.709 3.709 0 0 1 3.717 3.717v19.025a3.709 3.709 0 0 1-3.717 3.717H3.717A3.709 3.709 0 0 1 0 22.742V3.717A3.709 3.709 0 0 1 3.717 0z" fill="#1890ff"/><path d="M13.23 20.873q-2.124 0-3.525-.595-1.402-.615-2.123-1.592-.722-.977-.765-2.08 0-.17.128-.298.148-.149.34-.149H9.96q.297 0 .445.106.17.107.298.276.17.319.467.616.318.297.828.489.51.17 1.231.17 1.232 0 1.848-.383.637-.382.637-1.04 0-.489-.34-.786-.34-.297-1.104-.53-.743-.255-1.996-.51-1.614-.34-2.76-.87-1.126-.553-1.72-1.423-.595-.892-.595-2.208 0-1.296.722-2.315.743-1.019 2.06-1.592 1.316-.573 3.121-.573 1.465 0 2.57.382 1.124.382 1.889 1.019.764.637 1.146 1.359.404.7.425 1.38 0 .17-.127.319-.107.127-.319.127h-2.803q-.233 0-.403-.085t-.297-.276q-.128-.467-.68-.807-.53-.36-1.401-.36-.934 0-1.465.339-.51.318-.51.998 0 .425.276.743.298.318.956.552.68.234 1.847.488 1.932.361 3.121.913 1.19.531 1.741 1.402.573.849.573 2.144 0 1.444-.828 2.484t-2.272 1.614q-1.422.552-3.312.552z" fill="#fff"/></svg>